# Blender v2.79 (sub 0) OBJ File: ''
# www.blender.org
v 0.889033 -2.024526 -1.793014
v 1.354394 -2.024526 -0.482755
v -0.001318 -2.024526 -0.002127
v -0.891670 -2.024526 1.788759
v 0.003774 -1.024526 2.233934
v -0.891670 -1.024526 1.788759
v 0.894126 -2.024526 0.443048
v 1.354394 -1.024526 -0.482755
v 0.894126 -1.024526 0.443048
v -0.006410 -1.024526 -2.238189
v 0.889033 -1.024526 -1.793014
v -0.896761 -1.024526 -0.447303
v -0.466307 -0.024526 -1.313136
v -0.458853 -1.024526 -1.328129
v -0.896761 -2.024526 -0.447303
v -0.451398 -2.024526 -1.343121
v -1.787112 -2.024526 1.343584
v -1.332807 -1.024526 0.429774
v -1.327215 -2.024526 0.418530
v -1.787113 -1.024526 1.343583
v -1.338397 -0.024526 0.441019
v -0.006410 -0.024526 -2.238189
v 0.889033 -0.024526 -1.793014
v 1.784477 -1.024526 -1.347838
v 1.784477 -0.024526 -1.347838
v 1.784477 -2.024526 -1.347838
v 1.354394 -0.024526 -0.482755
v 0.894126 -0.024526 0.443048
v 0.003773 -0.024526 2.233935
v 0.418947 -1.024526 1.398838
v 0.422674 -0.024526 1.391341
v 0.415221 -2.024526 1.406335
v -0.891670 -0.024526 1.788759
v -1.787113 -0.024526 1.343583
v -0.896762 -0.024526 -0.447303
v -0.006410 -2.024526 -2.238189
v 0.003775 -2.024526 2.233935
vt 0.503914 0.748032
vt 0.558776 0.501615
vt 0.625178 0.744931
vt 0.874764 0.995309
vt 0.752676 0.751132
vt 0.874764 0.751132
vt 0.246900 0.991312
vt 0.122068 0.751088
vt 0.248450 0.751489
vt 0.124006 0.493532
vt -0.000188 0.246391
vt 0.124082 0.245768
vt 0.248301 0.750651
vt 0.129120 0.507152
vt 0.125689 0.750657
vt 0.247260 0.994364
vt 0.122247 0.994154
vt 0.497182 0.994783
vt 0.370392 0.750644
vt 0.368089 0.994566
vt 0.497596 0.750638
vt 0.372688 0.506717
vt 0.000275 -0.004474
vt 0.124158 -0.001997
vt 0.248352 0.245145
vt 0.248040 0.000480
vt 0.248663 0.489809
vt 0.124019 0.510062
vt 0.250000 0.511665
vt 0.493699 0.514765
vt 0.378925 0.751902
vt 0.379041 0.513306
vt 0.492924 0.752264
vt 0.378815 0.990479
vt 0.752676 0.506954
vt 0.874764 0.506954
vt 0.996853 0.751132
vt 0.996853 0.506954
vt 0.996853 0.995309
vt 0.688734 0.499980
vt 0.746443 0.741830
vt 0.685582 0.986800
vt 0.568203 0.991375
vt 0.006301 0.508564
vt 0.120117 0.992114
vt 0.003975 0.750713
vt 0.249343 0.506938
vt 0.000675 0.507382
vt -0.000994 0.750663
vt -0.002662 0.993944
vt 0.622465 0.500813
vt 0.499263 0.502364
vt 0.752676 0.995309
vt -0.000651 0.497256
vt 0.498010 0.506493
vt 0.492149 0.989762
vt 0.745668 0.499263
vt 0.747218 0.984398
vt 0.627891 0.989048
vt 0.508564 0.993699
vt 0.001650 0.992863
vn 0.0000 -1.0000 0.0000
vn -0.4452 0.0000 0.8954
vn 0.8954 0.0000 0.4452
vn 0.4452 0.0000 -0.8954
vn -0.8954 -0.0000 -0.4452
f 1/1/1 2/2/1 3/3/1
f 4/4/2 5/5/2 6/6/2
f 7/7/3 8/8/3 9/9/3
f 1/10/4 10/11/4 11/12/4
f 12/13/5 13/14/5 14/15/5
f 15/16/5 14/15/5 16/17/5
f 17/18/5 18/19/5 19/20/5
f 20/21/5 21/22/5 18/19/5
f 11/12/4 22/23/4 23/24/4
f 24/25/4 23/24/4 25/26/4
f 26/27/4 11/12/4 24/25/4
f 9/9/3 27/28/3 28/29/3
f 29/30/3 30/31/3 31/32/3
f 5/33/3 32/34/3 30/31/3
f 6/6/2 29/35/2 33/36/2
f 20/37/2 33/36/2 34/38/2
f 17/39/2 6/6/2 20/37/2
f 3/3/1 32/40/1 4/41/1
f 19/42/1 3/3/1 4/41/1
f 16/43/1 1/1/1 3/3/1
f 8/8/3 25/44/3 27/28/3
f 2/45/3 24/46/3 8/8/3
f 30/31/3 7/7/3 9/9/3
f 31/32/3 9/9/3 28/29/3
f 19/20/5 12/13/5 15/16/5
f 18/19/5 35/47/5 12/13/5
f 14/15/5 22/48/5 10/49/5
f 16/17/5 10/49/5 36/50/5
f 7/51/1 3/3/1 2/2/1
f 1/1/1 26/52/1 2/2/1
f 4/4/2 37/53/2 5/5/2
f 7/7/3 2/45/3 8/8/3
f 1/10/4 36/54/4 10/11/4
f 12/13/5 35/47/5 13/14/5
f 15/16/5 12/13/5 14/15/5
f 17/18/5 20/21/5 18/19/5
f 20/21/5 34/55/5 21/22/5
f 11/12/4 10/11/4 22/23/4
f 24/25/4 11/12/4 23/24/4
f 26/27/4 1/10/4 11/12/4
f 9/9/3 8/8/3 27/28/3
f 29/30/3 5/33/3 30/31/3
f 5/33/3 37/56/3 32/34/3
f 6/6/2 5/5/2 29/35/2
f 20/37/2 6/6/2 33/36/2
f 17/39/2 4/4/2 6/6/2
f 37/57/1 4/41/1 32/40/1
f 3/3/1 7/51/1 32/40/1
f 4/41/1 17/58/1 19/42/1
f 19/42/1 15/59/1 3/3/1
f 3/3/1 15/59/1 16/43/1
f 16/43/1 36/60/1 1/1/1
f 8/8/3 24/46/3 25/44/3
f 2/45/3 26/61/3 24/46/3
f 30/31/3 32/34/3 7/7/3
f 31/32/3 30/31/3 9/9/3
f 19/20/5 18/19/5 12/13/5
f 18/19/5 21/22/5 35/47/5
f 14/15/5 13/14/5 22/48/5
f 16/17/5 14/15/5 10/49/5
