# Blender v2.79 (sub 0) OBJ File: 'fish.blend'
# www.blender.org
v -0.840632 0.002690 -0.891696
v 0.392290 0.002690 -0.978620
v -1.381127 0.002690 0.214979
v -1.381127 0.002690 -0.224638
v -1.334563 0.002690 -1.230354
v -0.101641 0.002690 -1.317278
v -2.089497 0.002690 0.971979
v -2.082268 0.002690 -0.973669
v -1.381127 0.002690 -0.004829
v -1.778681 0.002690 -0.004829
v -0.858828 0.002690 0.908783
v 0.477206 0.002690 1.002394
v 1.258463 0.002690 0.598350
v 1.258463 0.002690 -0.634755
v 1.561733 0.002690 0.165956
v 1.561733 0.002690 -0.188988
v -0.631208 0.373846 -0.666512
v -0.644812 0.373846 0.679549
v 0.354024 0.373846 0.749533
v 0.290540 0.373846 -0.731498
v 0.938101 0.373846 0.447465
v 0.938101 0.373846 -0.474420
v -1.035289 0.373846 -0.003479
v -1.035289 0.373846 0.160852
v -1.035289 0.373846 -0.167811
v 1.353776 0.227572 0.093727
v 1.353776 0.227572 -0.171634
v -0.694020 -0.394173 -0.734050
v -0.709001 -0.394173 0.748302
v 0.390969 -0.394173 0.825373
v 0.321057 -0.394173 -0.805616
v 1.034186 -0.394173 0.492720
v 1.034186 -0.394173 -0.522509
v -1.139014 -0.394173 -0.003884
v -1.139014 -0.394173 0.177086
v -1.139014 -0.394173 -0.184855
v 1.472817 -0.247898 0.106250
v 1.472817 -0.247898 -0.185979
v -0.638010 0.373846 0.006518
v 0.322282 0.373846 0.009018
v -0.910399 1.010027 0.006540
v -0.051835 0.814273 0.009122
v 0.356013 -0.394173 0.009878
v -0.701510 -0.394173 0.007126
v -0.007315 -0.808104 0.009774
v -0.946090 -0.977920 0.007104
vt 0.294947 0.723216
vt 0.461672 0.946846
vt 0.290663 0.791426
vt 0.159624 0.436834
vt 0.029674 0.588820
vt 0.001332 0.305983
vt 0.175491 0.699103
vt 0.014015 0.903039
vt 0.346653 0.317685
vt 0.243979 0.512259
vt 0.372275 0.391500
vt 0.648105 0.231815
vt 0.370127 0.391807
vt 0.655181 0.338358
vt 0.178856 0.586737
vt 0.175401 0.508268
vt 0.428586 0.784001
vt 0.430917 0.533998
vt 0.433249 0.283995
vt 0.661514 0.567768
vt 0.899521 0.478103
vt 0.901968 0.668365
vt 0.385254 0.533342
vt 0.248976 0.613756
vt 0.245604 0.561483
vt 0.972782 0.563237
vt 0.970455 0.638332
vt 0.371249 0.394657
vt 0.660833 0.563110
vt 0.381008 0.533002
vt 0.430917 0.533998
vt 0.176743 0.577873
vt 0.243148 0.508850
vt 0.649532 0.223671
vt 0.345142 0.303431
vt 0.347779 0.315106
vt 0.172943 0.504737
vt 0.714941 0.859906
vt 0.735064 0.553378
vt 0.755187 0.246849
vt 0.372869 0.726580
vt 0.396233 0.671981
vt 0.664055 0.866874
vt 0.390767 0.671346
vt 0.689745 0.777297
vt 0.999717 0.604270
vt 0.975973 0.561327
vt 0.990053 0.523654
vt 0.899766 0.706471
vt 0.999481 0.612555
vt 0.839086 0.320697
vt 0.905862 0.482139
vt 0.653672 0.861920
vt 0.181415 0.650960
vt 0.651678 0.229267
vt 0.657163 0.343213
vt 0.901398 0.479070
vt 0.657678 0.345298
vt 0.661787 0.569290
vt 0.250929 0.611494
vt 0.398599 0.669564
vt 0.385437 0.530532
vt 0.900535 0.665730
vt 0.973326 0.562260
vt 0.660545 0.560040
vt 0.735064 0.553378
vt 0.371773 0.727443
vt 0.182916 0.648367
vt 0.665426 0.867281
vt 0.390791 0.675798
vt 0.369971 0.759917
vt 0.999676 0.604511
vt 0.970498 0.640225
vt 0.897502 0.707045
vt 0.838050 0.318103
vt 0.990605 0.527063
vt 0.654232 0.862707
vt 0.690311 0.785469
vt 0.243691 0.562200
vt 0.651598 0.234285
vt 0.485222 0.242284
vt 0.563312 0.093583
vt 0.633270 0.236605
vt 0.485262 0.246147
vt 0.561493 0.090857
vt 0.425784 0.122847
vt 0.690322 0.773909
vt 0.593073 0.878637
vt 0.159031 0.535414
vt 0.347447 0.307579
vt 0.433249 0.283995
vt 0.428586 0.784001
vt 0.690280 0.784510
vt 0.374275 0.394704
vt 0.656335 0.341110
vt 0.428586 0.784001
vt 0.433249 0.283995
vt 0.755187 0.246849
vt 0.714941 0.859906
vt 0.371684 0.761608
vt 0.974466 0.632474
vt 0.833754 0.309646
vt 0.380459 0.533802
vt 0.714941 0.859906
vt 0.755187 0.246849
vt 0.423328 0.118191
vt 0.639427 0.236304
vn 0.0000 1.0000 -0.0000
vn -0.7016 -0.4784 0.5281
vn -0.0642 -0.3949 0.9165
vn -0.8537 -0.5208 0.0000
vn -0.9368 -0.3498 -0.0095
vn 0.3319 0.9433 0.0000
vn -0.8686 0.4954 -0.0088
vn -0.7316 0.6817 0.0000
vn -0.0584 0.5488 0.8339
vn -0.6141 0.6396 0.4623
vn 0.9563 0.2895 -0.0410
vn -0.6007 0.6342 -0.4867
vn -0.0591 0.5420 -0.8383
vn 0.7342 0.6789 0.0000
vn 0.6431 0.6285 -0.4375
vn 0.5967 0.6850 0.4180
vn 0.2994 0.5843 -0.7543
vn 0.3662 0.6039 0.7080
vn 0.0000 -1.0000 0.0000
vn 0.3164 -0.9486 0.0000
vn 0.9801 -0.1942 -0.0420
vn -0.6845 -0.4732 -0.5546
vn -0.0648 -0.3890 -0.9190
vn 0.9424 -0.3344 0.0000
vn 0.6227 -0.5178 -0.5866
vn 0.7528 -0.3929 0.5280
vn 0.3338 -0.4264 -0.8407
vn 0.4115 -0.4444 0.7957
vn 0.0026 0.0024 -1.0000
vn 0.0031 -0.0012 -1.0000
vn 0.5701 0.6868 -0.4508
vn 0.5961 0.6855 0.4181
vn 0.7919 -0.2875 -0.5388
vn 0.6564 -0.5171 0.5493
vn 0.0033 0.0015 -1.0000
vn 0.0026 -0.0020 -1.0000
s off
f 1/1/1 6/2/1 5/3/1
f 3/4/1 10/5/1 7/6/1
f 10/5/1 4/7/1 8/8/1
f 11/9/2 35/10/2 29/11/2
f 12/12/3 29/13/3 30/14/3
f 9/15/4 35/10/4 3/16/4
f 1/17/5 44/18/5 11/19/5
f 40/20/1 21/21/1 22/22/1
f 39/23/1 25/24/1 23/25/1
f 22/22/6 26/26/6 27/27/6
f 18/28/1 40/29/1 39/30/1
f 11/19/7 39/31/7 1/17/7
f 9/32/8 24/33/8 23/25/8
f 12/34/9 18/28/9 11/35/9
f 11/36/10 24/33/10 3/37/10
f 2/38/11 40/39/11 12/40/11
f 1/41/12 25/24/12 17/42/12
f 2/43/13 17/44/13 20/45/13
f 16/46/14 26/47/14 15/48/14
f 14/49/15 27/27/15 16/50/15
f 13/51/16 26/47/16 21/52/16
f 2/53/17 22/22/17 14/49/17
f 9/32/8 25/24/8 4/54/8
f 12/55/18 21/21/18 19/56/18
f 32/57/19 30/58/19 43/59/19
f 36/60/19 28/61/19 44/62/19
f 33/63/20 37/64/20 32/57/20
f 29/13/19 43/65/19 30/14/19
f 12/40/21 43/66/21 2/38/21
f 1/67/22 36/60/22 4/68/22
f 40/29/1 17/44/1 39/30/1
f 2/69/23 28/70/23 1/71/23
f 16/72/24 37/64/24 38/73/24
f 14/74/25 38/73/25 33/63/25
f 13/75/26 37/64/26 15/76/26
f 2/77/27 33/63/27 31/78/27
f 9/15/4 36/60/4 34/79/4
f 12/80/28 32/57/28 13/75/28
f 39/81/29 42/82/29 40/83/29
f 44/84/30 45/85/30 46/86/30
f 43/65/19 28/70/19 31/87/19
f 1/1/1 2/88/1 6/2/1
f 3/4/1 9/89/1 10/5/1
f 10/5/1 9/89/1 4/7/1
f 11/9/2 3/16/2 35/10/2
f 12/12/3 11/90/3 29/13/3
f 9/15/4 34/79/4 35/10/4
f 29/91/5 11/19/5 44/18/5
f 1/17/5 28/92/5 44/18/5
f 22/22/1 20/93/1 40/20/1
f 40/20/1 19/56/1 21/21/1
f 24/33/1 18/94/1 39/23/1
f 39/23/1 17/42/1 25/24/1
f 23/25/1 24/33/1 39/23/1
f 22/22/6 21/21/6 26/26/6
f 18/28/1 19/95/1 40/29/1
f 17/96/7 1/17/7 39/31/7
f 11/19/7 18/97/7 39/31/7
f 9/32/8 3/37/8 24/33/8
f 12/34/9 19/95/9 18/28/9
f 11/36/10 18/94/10 24/33/10
f 19/98/11 12/40/11 40/39/11
f 2/38/11 20/99/11 40/39/11
f 1/41/12 4/54/12 25/24/12
f 2/43/13 1/100/13 17/44/13
f 16/46/14 27/101/14 26/47/14
f 14/49/31 22/22/31 27/27/31
f 13/51/32 15/48/32 26/47/32
f 2/53/17 20/93/17 22/22/17
f 9/32/8 23/25/8 25/24/8
f 12/55/18 13/102/18 21/21/18
f 43/59/19 31/78/19 33/63/19
f 33/63/19 32/57/19 43/59/19
f 44/62/19 29/11/19 35/10/19
f 34/79/19 36/60/19 44/62/19
f 44/62/19 35/10/19 34/79/19
f 33/63/20 38/73/20 37/64/20
f 29/13/19 44/103/19 43/65/19
f 31/104/21 2/38/21 43/66/21
f 12/40/21 30/105/21 43/66/21
f 1/67/22 28/61/22 36/60/22
f 40/29/1 20/45/1 17/44/1
f 2/69/23 31/87/23 28/70/23
f 16/72/24 15/76/24 37/64/24
f 14/74/33 16/72/33 38/73/33
f 13/75/34 32/57/34 37/64/34
f 2/77/27 14/74/27 33/63/27
f 9/15/4 4/68/4 36/60/4
f 12/80/28 30/58/28 32/57/28
f 39/81/35 41/106/35 42/82/35
f 44/84/36 43/107/36 45/85/36
f 43/65/19 44/103/19 28/70/19
