# Blender v2.79 (sub 0) OBJ File: 'fish2.blend'
# www.blender.org
v -0.460173 -0.865606 0.825052
v -0.534737 0.590816 0.816362
v -0.590374 -0.760596 -0.554290
v -0.486559 0.683198 -0.801415
v 0.499510 -0.799758 1.002613
v 0.501019 0.638995 0.653866
v 0.479633 -0.830265 -0.582199
v 0.512703 0.628636 -1.009840
v -0.149702 -0.371949 1.897477
v -0.173304 0.290288 1.974194
v 0.149702 0.267298 1.869725
v 0.173304 -0.388436 1.997269
v -0.125749 -1.263784 3.099403
v -0.134732 1.282784 3.133290
v 0.134732 1.296284 3.087976
v 0.149702 -1.309673 3.135160
v -0.184810 0.271743 -1.970579
v -0.277787 -0.294316 -1.820643
v 0.309160 -0.173523 -1.947985
v 0.319236 0.266328 -2.007920
v 0.145959 -0.051971 2.615481
v 0.236287 -0.058706 1.812814
v -0.164672 -0.055156 2.563112
v -0.236287 -0.058706 1.812814
v -0.541304 -0.870522 0.109432
v -0.640063 -0.195742 0.793065
v -0.537346 0.686856 -0.003715
v -0.660163 -0.010176 -0.725533
v -0.132120 -1.021535 -0.639581
v 0.043138 0.830105 -0.835028
v 0.658548 -0.010423 -0.759469
v 0.533920 -0.863562 0.310348
v 0.535648 0.680639 -0.224375
v 0.640344 -0.189577 0.804829
v 0.064906 -0.993598 0.851822
v -0.064625 0.850611 0.724845
v -0.226847 0.119446 1.844007
v 0.226847 -0.234264 1.863045
v 0.047204 -0.441925 1.928037
v -0.047204 0.344449 1.899316
v -0.338520 -0.685811 1.403678
v -0.385724 0.498736 1.426242
v 0.385724 -0.612364 1.484630
v 0.338520 0.571383 1.337874
v -0.149702 0.638312 2.832471
v 0.149702 -0.817572 2.894558
v 0.029940 -1.309673 3.135160
v 0.000000 1.321441 3.133223
v -0.149702 -0.777563 2.541999
v -0.149702 0.846935 2.650947
v 0.149702 0.728308 2.530379
v 0.149702 -0.883985 2.660631
v -0.297466 0.049023 -1.980834
v 0.040785 -0.312595 -1.956589
v 0.130690 0.266599 -2.006053
v 0.318733 0.119899 -2.000979
v 0.443878 -0.460632 -1.420165
v 0.404205 0.427736 -1.671880
v -0.416378 -0.568741 -1.232902
v -0.349212 0.511539 -1.500019
v 0.149702 0.774938 2.892621
v 0.226847 0.119446 1.844007
v 0.179642 -0.059801 2.175986
v -0.149702 -0.694546 2.834407
v -0.226847 -0.234264 1.863045
v -0.179642 -0.059801 2.175986
v -0.029940 -0.049216 2.712438
v -0.700469 -0.092516 0.063763
v 0.525150 0.142169 -1.495444
v 0.693246 -0.093559 0.053659
v -0.462869 0.319985 1.351101
v -0.462869 -0.437405 1.390451
v -0.002841 -1.100854 0.131403
v -0.000596 0.918809 -0.043384
v -0.179642 0.164130 2.290745
v 0.188818 -0.702738 1.404646
v -0.188818 0.589059 1.336905
v 0.462869 -0.437405 1.390451
v 0.462869 0.319985 1.351101
v 0.000000 -0.800968 2.953040
v 0.000000 0.864934 2.590529
v 0.179642 -0.268534 2.300428
v 0.000000 -0.900588 2.602149
v 0.016580 -0.005195 -2.127295
v 0.082868 -0.703045 -1.383322
v 0.104667 0.570248 -1.522265
v -0.517046 0.133814 -1.458795
v 0.179642 0.164130 2.290745
v -0.179642 -0.268534 2.300429
v 0.000000 0.756938 2.953040
v -0.036546 -1.378220 -0.293883
v 0.160480 -1.350284 1.197519
v 0.092732 -1.457540 0.477101
v 0.284391 -1.059423 1.750344
vt 0.497669 0.662946
vt 0.614234 0.766320
vt 0.505584 0.785172
vt 0.694457 0.868655
vt 0.862463 0.805116
vt 0.775622 0.860836
vt 0.669345 0.596005
vt 0.548107 0.780704
vt 0.549638 0.597780
vt 0.503093 0.885021
vt 0.412007 0.830347
vt 0.571886 0.511581
vt 0.691841 0.507637
vt 0.743798 0.651074
vt 0.619054 0.506844
vt 0.781881 0.540232
vt 0.243428 0.703885
vt 0.213253 0.730425
vt 0.131080 0.611574
vt 0.457766 0.611496
vt 0.366705 0.566880
vt 0.456010 0.527639
vt 0.316980 0.613035
vt 0.376643 0.555640
vt 0.472059 0.883914
vt 0.376409 0.846754
vt 0.448434 0.772921
vt 0.154027 0.788680
vt 0.058616 0.615055
vt 0.082968 0.610880
vt 0.146597 0.591768
vt 0.221077 0.653597
vt 0.214026 0.650894
vt 0.211476 0.759950
vt 0.155784 0.609210
vt 0.071867 0.951973
vt 0.134804 0.868207
vt 0.088390 0.962921
vt 0.969924 0.713754
vt 0.997921 0.754635
vt 0.963739 0.745385
vt 0.835441 0.562085
vt 0.865165 0.705535
vt 0.772645 0.927460
vt 0.688236 0.945257
vt 0.880283 0.723675
vt 0.728572 0.753047
vt 0.205741 0.831653
vt 0.096780 0.911155
vt 0.166584 0.774126
vt 0.203419 0.809904
vt 0.110855 0.888785
vt 0.075849 0.903773
vt 0.121214 0.784896
vt 0.624709 0.646721
vt 0.654579 0.786179
vt 0.371709 0.657800
vt 0.306580 0.714068
vt 0.410350 0.871470
vt 0.370462 0.601847
vt 0.322534 0.690918
vt 0.385522 0.869965
vt 0.170956 0.875009
vt 0.113668 0.936075
vt 0.104260 0.922725
vt 0.986728 0.700213
vt 0.844201 0.675243
vt 0.228316 0.796020
vt 0.237851 0.775420
vt 0.065565 0.640067
vt 0.007413 0.550055
vt 0.025864 0.578740
vt 0.055599 0.980858
vt 0.080221 0.959160
vt 0.311005 0.777189
vt 0.288219 0.804645
vt 0.312188 0.751970
vt 0.313773 0.780806
vt 0.304265 0.796377
vt 0.319746 0.729169
vt 0.950982 0.794015
vt 0.902185 0.616039
vt 0.846145 0.875107
vt 0.818886 0.883526
vt 0.850158 0.871534
vt 0.868970 0.817137
vt 0.737331 0.938527
vt 0.706853 0.860779
vt 0.995168 0.767045
vt 0.953145 0.796703
vt 0.973002 0.772975
vt 0.152442 0.918140
vt 0.045695 0.991426
vt 0.063322 0.968397
vt 0.061088 0.975242
vt 0.198979 0.839901
vt 0.147516 0.904504
vt 0.132516 0.895452
vt 0.125253 0.941815
vt 0.077920 0.902101
vt 0.129170 0.774322
vt 0.404260 0.661598
vt 0.297246 0.814847
vt 0.212164 0.852271
vt 0.287838 0.817516
vt 0.217009 0.841697
vt 0.299553 0.621016
vt 0.580135 0.935061
vt 0.454546 0.903190
vt 0.635871 0.950313
vt 0.501235 0.917046
vt 0.410189 0.707049
vt 0.590702 0.884094
vt 0.102175 0.653581
vt 0.159069 0.882834
vt 0.140596 0.912802
vt 0.990872 0.698225
vt 0.972168 0.785560
vt 0.022756 0.548631
vt 0.005192 0.553183
vt 0.610287 0.880553
vt 0.391645 0.882053
vt 0.288191 0.885191
vt 0.422041 0.955740
vt 0.596052 0.951573
vt 0.521648 0.980667
vt 0.554183 0.980338
vt 0.495157 0.914793
vt 0.335919 0.846660
vn -0.9866 0.1291 0.1000
vn 0.9389 0.2548 -0.2312
vn 0.9723 -0.2237 -0.0675
vn -0.9517 -0.2469 0.1824
vn 0.3078 -0.9398 -0.1483
vn -0.2724 0.9544 -0.1220
vn -0.9990 0.0449 -0.0021
vn 0.2510 -0.8787 0.4060
vn -0.4212 0.8618 0.2828
vn 0.9720 0.1889 0.1396
vn 0.3753 0.3191 0.8702
vn -0.5688 0.6752 -0.4696
vn 0.9988 -0.0494 -0.0014
vn 0.5456 -0.7102 -0.4450
vn -0.3778 0.2324 -0.8962
vn 0.4919 -0.7886 -0.3689
vn 0.2708 0.9082 -0.3192
vn -0.9636 0.2255 -0.1438
vn 0.9961 -0.0320 0.0820
vn -0.9984 0.0006 0.0564
vn 0.4616 -0.2694 0.8452
vn -0.9779 0.2071 0.0274
vn 0.9757 0.1669 -0.1422
vn 0.9720 -0.2261 -0.0646
vn -0.9306 0.0130 0.3657
vn -0.8571 -0.4126 0.3084
vn 0.4201 -0.9055 -0.0593
vn -0.3984 0.9168 -0.0296
vn -0.9667 0.2437 0.0778
vn 0.2427 -0.8835 0.4008
vn -0.3234 0.9208 0.2180
vn 0.9252 0.0090 0.3794
vn 0.8630 0.4399 0.2485
vn 0.4659 0.2865 0.8372
vn -0.3278 0.7352 -0.5933
vn 0.9616 -0.2614 0.0833
vn 0.3051 -0.7681 -0.5629
vn -0.0934 0.4380 -0.8941
vn 0.3102 -0.9031 -0.2970
vn 0.2720 0.9076 -0.3200
vn -0.8915 0.3671 -0.2655
vn 0.9962 -0.0395 0.0771
vn -0.9990 0.0229 0.0384
vn 0.3879 -0.2945 0.8734
vn 0.0874 -0.3029 0.9490
vn 0.3880 -0.2802 0.8780
vn 0.2434 -0.3342 0.9105
vn -0.8770 -0.4771 0.0573
vn -0.9914 0.0669 0.1122
vn -0.9880 -0.0090 0.1541
vn 0.8890 0.4554 0.0484
vn 0.9923 -0.0566 0.1105
vn 0.9877 0.0254 0.1541
vn -0.9122 -0.2150 -0.3488
vn -0.8489 0.3323 -0.4110
vn -0.7733 0.4133 -0.4808
vn -0.0461 0.8450 -0.5328
vn 0.1404 0.8420 -0.5209
vn -0.0030 0.9017 -0.4324
vn -0.3577 -0.8110 -0.4630
vn -0.3563 -0.8172 -0.4530
vn -0.5117 -0.7834 -0.3527
vn 0.4401 -0.1735 -0.8810
vn 0.2593 0.3006 -0.9178
vn -0.0100 -0.0473 -0.9988
vn -0.0951 -0.7923 -0.6027
vn 0.3128 -0.7449 -0.5893
vn 0.0000 -0.7444 -0.6678
vn 0.9961 0.0450 0.0755
vn 0.9914 0.0669 0.1122
vn 0.9880 -0.0090 0.1541
vn -0.0731 0.7632 -0.6420
vn -0.3319 0.7219 -0.6072
vn -0.2094 0.7287 -0.6520
vn -0.3986 0.3732 0.8378
vn -0.4868 0.2486 0.8374
vn -0.7228 0.2555 0.6420
vn 0.9057 -0.0261 0.4231
vn 0.7527 0.3998 0.5231
vn 0.8089 0.3385 0.4807
vn 0.9043 0.0718 0.4208
vn 0.8663 -0.1211 0.4847
vn 0.9202 -0.2388 0.3101
vn 0.3865 0.8774 0.2843
vn -0.2058 0.8774 0.4334
vn -0.1495 0.9035 0.4017
vn -0.3613 -0.8699 0.3357
vn 0.1976 -0.8550 0.4795
vn 0.1332 -0.8868 0.4426
vn -0.9990 -0.0199 0.0389
vn -0.9923 -0.0566 0.1105
vn -0.9877 0.0254 0.1541
vn 0.3605 0.9260 0.1122
vn -0.3932 0.9182 0.0487
vn -0.4654 0.8789 0.1044
vn -0.2415 -0.9563 0.1651
vn 0.3735 -0.9220 0.1021
vn 0.3750 -0.9212 0.1035
vn -0.9043 0.0718 0.4208
vn -0.7663 -0.3551 0.5354
vn -0.7989 -0.3203 0.5091
vn -0.9057 -0.0261 0.4231
vn -0.8604 0.1692 0.4808
vn -0.9204 0.2846 0.2679
vn 0.9752 0.2160 0.0487
vn 0.9812 0.1917 -0.0223
vn 0.9775 0.2065 -0.0422
vn 0.9300 -0.1663 -0.3278
vn 0.9657 -0.1561 -0.2074
vn 0.9592 -0.2412 -0.1473
vn -0.9924 -0.1064 -0.0618
vn -0.9789 0.2024 -0.0289
vn -0.9697 0.2359 -0.0628
vn -0.7161 -0.2392 0.6557
vn -0.4919 -0.2322 0.8391
vn -0.3743 -0.3851 0.8436
vn -0.9993 -0.0371 0.0105
vn -0.9986 -0.0518 0.0147
vn -0.9951 -0.0835 -0.0525
vn 0.9995 0.0302 -0.0039
vn 0.9984 0.0560 -0.0072
vn 0.9958 0.0751 -0.0524
vn -0.9459 -0.1532 -0.2859
vn -0.9512 -0.2092 -0.2267
vn -0.9154 -0.2360 -0.3261
vn -0.2730 0.9204 -0.2798
vn -0.1370 0.9224 -0.3611
vn -0.1355 0.8628 -0.4870
vn 0.4075 -0.7545 -0.5144
vn 0.4355 -0.7288 -0.5284
vn -0.2715 -0.8046 -0.5281
vn -0.3779 -0.4092 -0.8305
vn -0.4391 -0.4624 -0.7703
vn 0.2619 -0.4527 -0.8523
vn -0.2131 -0.8269 -0.5204
vn -0.3976 -0.7454 -0.5350
vn -0.3430 -0.7151 -0.6091
vn 1.0000 0.0000 0.0000
vn 0.9991 -0.0417 0.0118
vn 0.9960 0.0349 0.0825
vn 0.2291 0.7983 -0.5570
vn 0.4217 0.7103 -0.5636
vn 0.3378 0.6639 -0.6672
vn 0.0000 0.4392 0.8984
vn 0.3750 0.3319 0.8656
vn -0.1184 0.3285 0.9371
vn 0.9621 -0.1478 0.2290
vn 0.9551 0.0154 0.2959
vn 0.8897 0.0237 0.4560
vn 0.3643 0.9143 0.1769
vn 0.0300 0.9169 0.3979
vn 0.0280 0.8635 0.5036
vn -0.2393 -0.9118 0.3336
vn -0.0292 -0.8819 0.4705
vn -0.0279 -0.8388 0.5438
vn -0.9997 0.0151 0.0174
vn -0.9991 0.0273 0.0313
vn -0.9985 0.0002 0.0550
vn 0.3705 0.9260 -0.0721
vn 0.3813 0.9208 -0.0821
vn 0.4219 0.9047 0.0595
vn -0.5067 -0.8558 -0.1043
vn -0.3921 -0.9195 -0.0288
vn -0.3945 -0.9175 0.0510
vn -0.9731 0.1246 0.1939
vn -0.9569 0.0151 0.2899
vn -0.8897 0.0237 0.4560
vn 0.9767 -0.2036 0.0673
vn 0.9811 -0.1880 0.0451
vn 0.9791 0.1814 0.0921
vn 0.9710 -0.0146 -0.2385
vn 0.9127 0.1522 -0.3794
vn 0.9229 -0.0974 -0.3725
vn -0.9612 -0.2528 0.1107
vn -0.9789 -0.1971 0.0532
vn -0.9794 -0.1980 0.0396
vn -0.9816 -0.1150 0.1528
vn -0.9715 -0.0326 0.2349
vn 0.9817 0.1517 -0.1149
s off
f 2/1/1 68/2/1 26/3/1
f 8/4/2 69/5/2 58/6/2
f 7/7/3 70/8/3 32/9/3
f 1/10/4 72/11/4 26/3/4
f 7/7/5 73/12/5 29/13/5
f 4/14/6 74/15/6 30/16/6
f 10/17/7 75/18/7 50/19/7
f 5/20/8 76/21/8 35/22/8
f 2/1/9 77/23/9 36/24/9
f 6/25/10 79/26/10 34/27/10
f 21/28/11 80/29/11 46/30/11
f 10/17/12 81/31/12 40/32/12
f 12/33/13 82/34/13 52/35/13
f 12/36/14 83/37/14 39/38/14
f 17/39/15 84/40/15 53/41/15
f 7/7/16 85/42/16 57/43/16
f 8/4/17 86/44/17 30/45/17
f 4/14/18 87/46/18 28/47/18
f 21/28/19 88/48/19 61/49/19
f 23/50/20 89/51/20 64/52/20
f 21/28/21 90/53/21 67/54/21
f 2/1/22 27/55/22 68/2/22
f 8/4/23 31/56/23 69/5/23
f 7/7/24 31/56/24 70/8/24
f 10/17/25 42/57/25 37/58/25
f 1/10/26 41/59/26 72/11/26
f 7/7/27 32/9/27 73/12/27
f 4/14/28 27/55/28 74/15/28
f 10/17/29 37/58/29 75/18/29
f 5/20/30 43/60/30 76/21/30
f 2/1/31 42/57/31 77/23/31
f 12/33/32 43/60/32 38/61/32
f 6/25/33 44/62/33 79/26/33
f 21/28/34 67/54/34 80/29/34
f 10/17/35 50/19/35 81/31/35
f 12/33/36 38/61/36 82/34/36
f 12/63/37 52/64/37 83/65/37
f 17/39/38 55/66/38 84/40/38
f 7/7/39 29/13/39 85/42/39
f 8/4/40 58/6/40 86/44/40
f 4/14/41 60/67/41 87/46/41
f 21/28/42 63/68/42 88/48/42
f 23/50/43 66/69/43 89/51/43
f 21/28/44 61/49/44 90/53/44
f 90/70/45 48/71/45 14/72/45
f 90/53/46 61/49/46 48/73/46
f 61/49/47 15/74/47 48/73/47
f 89/51/48 65/75/48 9/76/48
f 89/51/49 66/69/49 65/75/49
f 66/69/50 24/77/50 65/75/50
f 88/48/51 62/78/51 11/79/51
f 88/48/52 63/68/52 62/78/52
f 63/68/53 22/80/53 62/78/53
f 87/46/54 53/41/54 18/81/54
f 87/46/55 60/67/55 53/41/55
f 60/67/56 17/39/56 53/41/56
f 86/82/57 55/66/57 17/39/57
f 86/44/58 58/6/58 55/83/58
f 58/6/59 20/84/59 55/83/59
f 85/85/60 59/86/60 18/81/60
f 85/85/61 29/87/61 59/86/61
f 29/87/62 3/88/62 59/86/62
f 84/89/63 56/90/63 19/91/63
f 84/89/64 55/83/64 56/90/64
f 55/83/65 20/84/65 56/90/65
f 83/92/66 47/93/66 13/94/66
f 83/65/67 52/64/67 47/95/67
f 52/96/68 16/97/68 47/98/68
f 82/34/69 63/68/69 21/28/69
f 82/34/70 38/61/70 63/68/70
f 38/61/71 22/80/71 63/68/71
f 81/99/72 48/73/72 15/74/72
f 81/31/73 50/19/73 48/71/73
f 50/19/74 14/72/74 48/71/74
f 80/100/75 64/52/75 13/94/75
f 80/100/76 67/101/76 64/52/76
f 67/101/77 23/50/77 64/52/77
f 79/26/78 62/78/78 22/80/78
f 79/26/79 44/62/79 62/78/79
f 44/62/80 11/79/80 62/78/80
f 38/61/81 78/102/81 22/80/81
f 38/61/82 43/60/82 78/102/82
f 43/60/83 5/20/83 78/102/83
f 77/103/84 40/104/84 11/79/84
f 77/23/85 42/57/85 40/32/85
f 42/57/86 10/17/86 40/32/86
f 76/105/87 39/106/87 9/76/87
f 76/21/88 43/60/88 39/107/88
f 43/60/89 12/33/89 39/107/89
f 75/18/90 66/69/90 23/50/90
f 75/18/91 37/58/91 66/69/91
f 37/58/92 24/77/92 66/69/92
f 74/108/93 36/109/93 6/25/93
f 74/15/94 27/55/94 36/24/94
f 27/55/95 2/1/95 36/24/95
f 73/110/96 35/111/96 1/10/96
f 73/12/97 32/9/97 35/22/97
f 32/9/98 5/20/98 35/22/98
f 72/11/99 65/75/99 24/77/99
f 72/11/100 41/59/100 65/75/100
f 41/59/101 9/76/101 65/75/101
f 37/58/102 71/112/102 24/77/102
f 37/58/103 42/57/103 71/112/103
f 42/57/104 2/1/104 71/112/104
f 70/8/105 33/113/105 6/25/105
f 70/8/106 31/56/106 33/113/106
f 31/56/107 8/4/107 33/113/107
f 69/5/108 57/43/108 19/91/108
f 69/5/109 31/56/109 57/43/109
f 31/56/110 7/7/110 57/43/110
f 68/2/111 28/47/111 3/88/111
f 68/2/112 27/55/112 28/47/112
f 27/55/113 4/14/113 28/47/113
f 67/101/114 45/114/114 23/50/114
f 67/101/115 90/70/115 45/114/115
f 90/70/116 14/72/116 45/114/116
f 64/52/117 49/115/117 13/94/117
f 64/52/118 89/51/118 49/115/118
f 89/51/119 9/76/119 49/115/119
f 61/49/120 51/116/120 15/74/120
f 61/49/121 88/48/121 51/116/121
f 88/48/122 11/79/122 51/116/122
f 28/47/123 59/86/123 3/88/123
f 28/47/124 87/46/124 59/86/124
f 87/46/125 18/81/125 59/86/125
f 30/16/126 60/67/126 4/14/126
f 30/16/127 86/82/127 60/67/127
f 86/82/128 17/39/128 60/67/128
f 57/43/129 54/117/129 19/91/129
f 57/43/130 85/42/130 54/117/130
f 85/85/131 18/81/131 54/118/131
f 53/41/132 54/118/132 18/81/132
f 53/41/133 84/40/133 54/118/133
f 84/89/134 19/91/134 54/117/134
f 39/106/135 49/115/135 9/76/135
f 39/106/136 83/92/136 49/115/136
f 83/92/137 13/94/137 49/115/137
f 52/35/138 46/30/138 16/119/138
f 52/35/139 82/34/139 46/30/139
f 82/34/140 21/28/140 46/30/140
f 40/104/141 51/116/141 11/79/141
f 40/104/142 81/99/142 51/116/142
f 81/99/143 15/74/143 51/116/143
f 46/30/144 47/120/144 16/119/144
f 46/30/145 80/29/145 47/120/145
f 80/100/146 13/94/146 47/93/146
f 34/27/147 78/102/147 5/20/147
f 34/27/148 79/26/148 78/102/148
f 79/26/149 22/80/149 78/102/149
f 36/109/150 44/62/150 6/25/150
f 36/109/151 77/103/151 44/62/151
f 77/103/152 11/79/152 44/62/152
f 35/111/153 41/59/153 1/10/153
f 35/111/154 76/105/154 41/59/154
f 76/105/155 9/76/155 41/59/155
f 50/19/156 45/114/156 14/72/156
f 50/19/157 75/18/157 45/114/157
f 75/18/158 23/50/158 45/114/158
f 30/45/159 33/113/159 8/4/159
f 30/45/160 74/108/160 33/113/160
f 74/108/161 6/25/161 33/113/161
f 29/87/162 25/121/162 3/88/162
f 29/87/163 73/110/163 25/121/163
f 73/110/164 1/10/164 25/121/164
f 26/3/165 71/112/165 2/1/165
f 26/3/166 72/11/166 71/112/166
f 72/11/167 24/77/167 71/112/167
f 32/9/168 34/27/168 5/20/168
f 32/9/169 70/8/169 34/27/169
f 70/8/170 6/25/170 34/27/170
f 58/6/171 56/90/171 20/84/171
f 58/6/172 69/5/172 56/90/172
f 69/5/173 19/91/173 56/90/173
f 26/3/174 25/121/174 1/10/174
f 26/3/175 68/2/175 25/121/175
f 68/2/176 3/88/176 25/121/176
f 73/122/177 91/123/177 93/124/177
f 76/125/178 92/126/178 94/127/178
f 35/128/179 93/124/179 73/122/179
f 73/122/177 29/129/177 91/123/177
f 76/125/178 35/128/178 92/126/178
f 35/128/179 92/126/179 93/124/179
