# Blender v2.79 (sub 0) OBJ File: ''
# www.blender.org
v 1.000000 -0.999999 -0.001273
v 0.999993 0.999999 -0.003798
v -0.999993 -0.999999 0.003798
v -1.000000 0.999999 0.001273
v 0.000003 -0.999999 0.001262
v 0.999997 0.000000 -0.002536
v -0.000003 0.999999 -0.001262
v -0.999997 -0.000000 0.002536
v 0.000000 0.000000 0.000000
vt 0.500000 0.000100
vt 0.999900 0.500000
vt 0.500000 0.500000
vt 0.999900 0.999900
vt 0.500000 0.999900
vt 0.000100 0.500000
vt 0.000100 0.999900
vt 0.000100 0.000100
vt 0.999900 0.000100
vn 0.0025 0.0013 1.0000
s off
f 7/1/1 8/2/1 9/3/1
f 9/3/1 3/4/1 5/5/1
f 6/6/1 5/5/1 1/7/1
f 2/8/1 9/3/1 6/6/1
f 7/1/1 4/9/1 8/2/1
f 9/3/1 8/2/1 3/4/1
f 6/6/1 9/3/1 5/5/1
f 2/8/1 7/1/1 9/3/1
