# Blender v2.79 (sub 0) OBJ File: 'pyramid.blend'
# www.blender.org
v 1.000000 0.000000 1.000000
v -1.000000 0.000000 1.000000
v 1.000000 0.000000 -1.000000
v -1.000000 0.000000 -1.000000
v 0.000000 -1.000000 0.000000
v 0.584673 -0.415327 0.584673
v 0.567504 -0.432496 -0.567504
v -0.580724 -0.419276 0.580724
v -0.587163 -0.412837 -0.587163
v 0.576344 -0.423656 0.025764
v 0.002420 -0.422875 -0.577125
v -0.583949 -0.416051 -0.004163
v 0.027488 -0.417215 0.582785
v 0.263551 0.000000 1.000000
v 0.255072 -0.416444 0.583556
v -0.285791 0.000000 1.000000
v -0.281390 -0.418261 0.581739
v -0.582294 -0.417706 0.295991
v -1.000000 0.000000 0.300471
v -0.585512 -0.414488 -0.287645
v -1.000000 0.000000 -0.300471
v -0.320077 -0.417384 -0.582616
v -0.315838 0.000000 -1.000000
v 0.302274 0.000000 -1.000000
v 0.298294 -0.427913 -0.572087
v 1.000000 0.000000 -0.300471
v 0.571417 -0.428583 -0.304872
v 1.000000 0.000000 0.244669
v 0.579538 -0.420462 0.240083
vt 0.368246 0.000084
vt 0.207713 0.413469
vt 0.000084 0.000084
vt 0.218055 0.429649
vt 0.351989 0.003283
vt 0.003184 0.003283
vt 0.798955 0.413367
vt 0.660478 0.003167
vt 1.014032 0.003150
vt 0.499967 0.987538
vt 0.349458 0.444490
vt 0.514738 0.440516
vt 0.794126 0.433798
vt 0.617081 0.007356
vt 0.994682 0.006235
vt 0.372485 0.414581
vt 0.500000 0.995409
vt 0.352518 0.418225
vt 0.493059 0.996803
vt 0.208585 0.419792
vt 0.661818 0.414751
vt 0.500000 0.989109
vt 0.795353 0.410268
vt 0.621872 0.437940
vt 0.352652 0.425131
vt 0.647548 0.415014
vt 0.640671 0.416390
vt 0.790313 0.417399
vt 0.642871 0.000084
vt 0.486258 0.415348
vt 0.356752 0.003181
vt 0.003197 0.003197
vt 0.504247 0.416574
vt 0.660993 0.003283
vt 1.003016 0.003283
vt 0.500579 0.420164
vt 0.344559 0.008165
vt 0.218173 0.447646
vt -0.005146 0.009203
vt 0.999916 0.000084
vn 0.0000 -0.7071 0.7071
vn 0.0000 -0.7071 -0.7071
vn -0.7071 -0.7071 0.0000
vn 0.7071 -0.7071 -0.0000
s off
f 14/1/1 6/2/1 1/3/1
f 7/4/2 24/5/2 3/6/2
f 9/7/3 21/8/3 4/9/3
f 5/10/4 27/11/4 10/12/4
f 6/13/4 28/14/4 1/15/4
f 15/16/1 5/17/1 6/2/1
f 18/18/3 5/19/3 8/20/3
f 22/21/2 5/22/2 9/23/2
f 29/24/4 5/10/4 10/12/4
f 5/22/2 25/25/2 7/4/2
f 5/19/3 20/26/3 9/7/3
f 5/17/1 17/27/1 8/28/1
f 16/29/1 17/27/1 13/30/1
f 16/29/1 8/28/1 17/27/1
f 19/31/3 8/20/3 2/32/3
f 20/26/3 12/33/3 21/8/3
f 23/34/2 9/23/2 4/35/2
f 25/25/2 11/36/2 24/5/2
f 26/37/4 7/38/4 3/39/4
f 10/12/4 27/11/4 26/37/4
f 14/1/1 15/16/1 6/2/1
f 7/4/2 25/25/2 24/5/2
f 9/7/3 20/26/3 21/8/3
f 5/10/4 7/38/4 27/11/4
f 6/13/4 29/24/4 28/14/4
f 15/16/1 13/30/1 5/17/1
f 18/18/3 12/33/3 5/19/3
f 22/21/2 11/36/2 5/22/2
f 29/24/4 6/13/4 5/10/4
f 5/22/2 11/36/2 25/25/2
f 5/19/3 12/33/3 20/26/3
f 5/17/1 13/30/1 17/27/1
f 13/30/1 15/16/1 14/1/1
f 14/1/1 16/29/1 13/30/1
f 16/29/1 2/40/1 8/28/1
f 19/31/3 18/18/3 8/20/3
f 19/31/3 21/8/3 12/33/3
f 12/33/3 18/18/3 19/31/3
f 23/34/2 22/21/2 9/23/2
f 23/34/2 24/5/2 11/36/2
f 11/36/2 22/21/2 23/34/2
f 26/37/4 27/11/4 7/38/4
f 26/37/4 28/14/4 10/12/4
f 29/24/4 10/12/4 28/14/4
