# Blender v2.79 (sub 0) OBJ File: 'sandbox.blend'
# www.blender.org
v 2.208106 0.250000 -1.486026
v -1.711443 0.250000 -2.284232
v -2.509648 0.250000 1.635318
v 1.409902 0.250000 2.433522
v 2.208105 -0.250000 -1.486028
v -1.711445 -0.250000 -2.284231
v -2.509648 -0.250000 1.635319
v 1.409901 -0.250000 2.433523
v 1.738596 -0.250000 -1.175393
v -1.400810 -0.250000 -1.814722
v 1.099266 -0.250000 1.964014
v -2.040139 -0.250000 1.324684
v 0.168894 -0.250000 -1.495057
v 1.418931 -0.250000 0.394311
v -1.720474 -0.250000 -0.245019
v -0.470436 -0.250000 1.644349
v -0.150771 -0.763716 0.074646
v -1.880307 -0.250000 0.539832
v -1.255288 -0.250000 1.484516
v -0.935623 -0.510638 -0.085187
v -0.310604 -0.410635 0.859497
v -1.095455 -0.410635 0.699665
v -0.615958 -0.250000 -1.654890
v -0.775790 -0.449831 -0.870038
v 0.009061 -0.563275 -0.710206
v -1.560642 -0.250000 -1.029871
v 1.259099 -0.250000 1.179162
v 1.578764 -0.250000 -0.390541
v 0.474248 -0.474438 1.019330
v 0.953745 -0.250000 -1.335225
v 0.793913 -0.416372 -0.550373
v 0.314415 -0.250000 1.804181
v 0.634080 -0.453926 0.234478
v -2.110546 -0.250000 -0.324456
v 0.248331 -0.250000 -1.885129
v 1.809003 -0.250000 0.473748
v -0.549874 -0.250000 2.034421
v -2.110546 0.250000 -0.324457
v 0.248332 0.250000 -1.885129
v 1.809004 0.250000 0.473748
v -0.549873 0.250000 2.034420
v 0.203822 -2.835909 -0.369887
v 0.363654 -2.635468 -1.154739
v -0.070855 -0.663495 -0.317780
v 0.283738 -2.735688 -0.762313
v 0.186358 -1.599371 -0.932472
v 0.026525 -1.799812 -0.147621
v 0.106441 -1.699592 -0.540046
vt 0.498689 0.985450
vt 0.255069 0.741831
vt 0.498688 0.741830
vt 0.500000 0.000000
vt 0.256201 0.491536
vt 0.000000 0.000000
vt 1.000000 0.000000
vt 0.001550 0.245768
vt 0.000000 0.000000
vt 1.000000 0.000000
vt -0.003100 0.247318
vt 0.000000 0.000000
vt 1.000000 0.000000
vt 0.001550 0.245768
vt 0.000000 0.000000
vt 1.000000 0.000000
vt 0.001550 0.247318
vt 0.000000 0.000000
vt 0.490259 0.751132
vt 0.248868 0.992523
vt 0.248868 0.751132
vt 0.500000 0.000000
vt 0.246900 0.494636
vt 0.000000 0.000000
vt 0.500000 0.000000
vt 0.253100 0.494636
vt 0.000000 0.000000
vt 0.500000 0.000000
vt 0.243799 0.494636
vt 0.246900 0.506357
vt 0.000993 0.752264
vt 0.000993 0.506357
vt 0.248868 0.987405
vt 0.485142 0.751132
vt 0.485142 0.987405
vt 0.007477 0.992523
vt 0.007477 0.751132
vt 0.248868 0.509740
vt 0.007477 0.509740
vt 0.255069 0.498211
vt 0.498688 0.498211
vt 0.011449 0.498211
vt 0.255069 0.985450
vt 0.133259 0.985450
vt 0.248868 0.514858
vt 0.012595 0.751132
vt 0.012595 0.514858
vt 0.492806 0.752264
vt 0.492806 0.998170
vt 0.369853 0.998170
vt 0.012595 0.987405
vt 0.246900 0.752264
vt 0.492806 0.506357
vt 0.000993 0.998170
vt 0.485141 0.514858
vt 0.761270 0.488435
vt 0.756201 0.491536
vt 0.745768 0.500837
vt 0.746900 0.494636
vt 1.000000 0.000000
vt 0.758169 0.494636
vt 0.743799 0.494636
vt 0.748868 0.488435
vt 0.753100 0.494636
vt 0.996900 0.247318
vt -0.006201 0.494636
vt 1.001550 0.245768
vt 0.003100 0.491536
vt 1.003100 0.494636
vt 0.003100 0.494636
vt 1.003100 0.491536
vt 0.003100 0.491536
vt 0.946594 0.742533
vt 0.747474 0.985521
vt 0.748249 0.746481
vt 0.527272 0.986710
vt 0.530372 0.747671
vt 0.749024 0.505488
vt 0.530372 0.506678
vt 0.948144 0.501540
vt 0.248031 0.491536
vt 0.506201 0.491536
vt 1.001550 0.245768
vt 1.001550 0.247318
vt 0.490259 0.992523
vt 0.244931 0.491536
vt 0.496900 0.494636
vt 0.248031 0.491536
vt 0.503100 0.494636
vt 0.235630 0.488435
vt 0.493799 0.494636
vt 0.248868 0.751132
vt 0.490259 0.509740
vt 0.011450 0.741831
vt 0.011450 0.985450
vt 0.246900 0.998170
vt 0.993799 0.494636
vt 1.003100 0.491536
vt 0.945043 0.981572
vn 0.0483 -0.9703 -0.2372
vn 0.0000 -1.0000 0.0000
vn 0.1996 0.0000 -0.9799
vn -0.9799 0.0000 -0.1996
vn -0.1996 0.0000 0.9799
vn 0.9799 -0.0000 0.1996
vn -0.2276 -0.9621 0.1506
vn 0.2418 -0.9691 0.0492
vn -0.3246 -0.9443 0.0542
vn -0.3495 -0.8790 0.3243
vn -0.0392 -0.9805 0.1927
vn -0.2372 -0.9703 -0.0483
vn -0.0854 -0.9611 -0.2628
vn 0.3896 -0.9083 -0.1526
vn 0.2506 -0.9681 0.0047
vn 0.0406 -0.9791 -0.1993
vn 0.2510 -0.8626 0.4392
vn 0.9669 0.1168 0.2267
vn -0.0561 -0.9233 -0.3800
vn 0.2351 -0.9595 -0.1555
vn 0.2692 -0.9626 0.0297
vn -0.1927 -0.9805 -0.0392
vn -0.0247 -0.9923 0.1214
vn -0.1836 -0.9430 -0.2775
vn -0.2881 -0.9485 -0.1321
vn -0.2032 -0.9722 -0.1167
vn -0.2408 -0.9275 -0.2859
vn -0.1286 -0.9601 0.2484
vn 0.2193 -0.9551 -0.1992
vn 0.2774 -0.9607 0.0105
vn 0.2033 -0.9297 0.3072
vn 0.1993 -0.9791 0.0406
vn 0.2366 -0.9180 -0.3182
vn -0.0727 -0.9965 -0.0408
s off
f 13/1/1 24/2/1 23/3/1
f 34/4/2 18/5/2 7/6/2
f 5/7/3 39/8/3 1/9/3
f 6/10/4 38/11/4 2/12/4
f 7/13/5 41/14/5 3/15/5
f 1/16/6 36/17/6 5/18/6
f 19/19/7 18/20/7 22/21/7
f 35/22/2 23/23/2 6/24/2
f 37/25/2 32/26/2 8/27/2
f 36/28/2 28/29/2 5/18/2
f 28/30/2 30/31/2 9/32/2
f 27/33/8 33/34/8 14/35/8
f 22/21/9 15/36/9 20/37/9
f 21/38/10 20/37/10 17/39/10
f 21/38/11 19/19/11 22/21/11
f 23/3/2 26/40/2 10/41/2
f 24/2/12 15/42/12 26/40/12
f 25/43/13 44/44/13 24/2/13
f 21/45/11 32/46/11 16/47/11
f 33/48/14 17/49/14 44/50/14
f 32/46/2 27/33/2 11/51/2
f 31/52/15 14/53/15 33/48/15
f 31/52/16 13/54/16 30/31/16
f 33/34/17 21/45/17 17/55/17
f 6/10/2 10/56/2 26/57/2
f 5/7/2 9/58/2 30/59/2
f 8/60/2 11/61/2 27/62/2
f 7/13/2 12/63/2 19/64/2
f 34/65/4 3/66/4 38/11/4
f 35/67/3 2/68/3 39/8/3
f 36/17/6 4/69/6 8/70/6
f 41/14/5 8/71/5 4/72/5
f 47/73/18 45/74/18 48/75/18
f 48/75/18 43/76/18 46/77/18
f 44/78/18 46/77/18 25/79/18
f 17/80/18 48/75/18 44/78/18
f 13/1/19 25/43/19 24/2/19
f 12/81/2 7/6/2 18/5/2
f 34/4/2 15/82/2 18/5/2
f 5/7/3 35/67/3 39/8/3
f 6/10/4 34/65/4 38/11/4
f 7/13/5 37/83/5 41/14/5
f 1/16/6 40/84/6 36/17/6
f 19/19/2 12/85/2 18/20/2
f 10/86/2 6/24/2 23/23/2
f 35/22/2 13/87/2 23/23/2
f 11/88/2 8/27/2 32/26/2
f 37/25/2 16/89/2 32/26/2
f 9/90/2 5/18/2 28/29/2
f 36/28/2 14/91/2 28/29/2
f 28/30/20 31/52/20 30/31/20
f 27/33/21 29/92/21 33/34/21
f 22/21/22 18/20/22 15/36/22
f 21/38/23 22/21/23 20/37/23
f 21/38/11 16/93/11 19/19/11
f 23/3/24 24/2/24 26/40/24
f 24/2/25 20/94/25 15/42/25
f 20/94/26 24/2/26 44/44/26
f 44/44/27 17/95/27 20/94/27
f 21/45/28 29/92/28 32/46/28
f 44/50/29 25/96/29 31/52/29
f 31/52/30 33/48/30 44/50/30
f 32/46/31 29/92/31 27/33/31
f 31/52/32 28/30/32 14/53/32
f 31/52/33 25/96/33 13/54/33
f 33/34/34 29/92/34 21/45/34
f 26/57/2 15/82/2 34/4/2
f 34/4/2 6/10/2 26/57/2
f 30/59/2 13/87/2 35/22/2
f 35/22/2 5/7/2 30/59/2
f 27/62/2 14/91/2 36/28/2
f 36/28/2 8/60/2 27/62/2
f 19/64/2 16/89/2 37/25/2
f 37/25/2 7/13/2 19/64/2
f 34/65/4 7/97/4 3/66/4
f 35/67/3 6/98/3 2/68/3
f 36/17/6 40/84/6 4/69/6
f 41/14/5 37/83/5 8/71/5
f 47/73/18 42/99/18 45/74/18
f 48/75/18 45/74/18 43/76/18
f 44/78/18 48/75/18 46/77/18
f 17/80/18 47/73/18 48/75/18
