# Blender v2.79 (sub 0) OBJ File: 'tank.blend'
# www.blender.org
o Cube.001
v 1.109942 -0.035657 -1.923114
v 1.109942 -0.542643 1.264307
v 1.109942 -0.542643 -1.264308
v -1.109943 0.223707 1.923113
v 0.682406 0.627994 1.560002
v -0.682407 0.627994 1.560001
v 1.109943 0.223707 -1.923113
v 1.109942 -0.035657 1.923114
v 1.109942 0.223707 1.923115
v -1.109943 -0.035657 1.923113
v -1.109942 0.223707 -1.923114
v -1.109942 -0.035657 -1.923114
v -1.109942 -0.542643 -1.264308
v -1.109943 -0.542643 1.264307
v 0.682407 0.627994 -0.804707
v -0.682407 0.627994 -0.804708
v 0.000000 1.229253 -0.165852
v 0.348542 0.612175 -0.148635
v 0.000000 0.612175 -0.234543
v 0.316620 1.229253 -0.087812
v 0.617238 0.612175 0.089409
v 0.676342 1.229253 0.433335
v 0.744532 0.612175 0.425055
v 0.701262 0.612175 0.781411
v 0.637035 1.229253 0.757053
v 0.497342 0.612175 1.076840
v 0.451792 1.229253 1.025425
v 0.179487 0.612175 1.243664
v 0.163048 1.229253 1.176969
v -0.179487 0.612175 1.243664
v -0.163048 1.229253 1.176969
v -0.497342 0.612175 1.076841
v -0.637035 1.229253 0.757053
v -0.701262 0.612175 0.781411
v -0.744532 0.612175 0.425055
v -0.676342 1.229253 0.433335
v -0.617238 0.612175 0.089409
v -0.298872 1.459604 0.628805
v -0.317313 1.459604 0.476929
v -0.560706 1.229253 0.128429
v -0.348542 0.612175 -0.148635
v 0.000000 1.459604 0.195814
v -0.076496 1.459604 0.825813
v 0.211963 1.459604 0.754714
v 0.560706 1.229253 0.128430
v 0.317313 1.459604 0.476929
v -0.451792 1.229253 1.025425
v -0.211963 1.459604 0.754714
v 0.148546 1.459604 0.232427
v -0.316620 1.229253 -0.087812
v 0.076496 1.459604 0.825813
v -0.263061 1.459604 0.333879
v 0.298872 1.459604 0.628805
v 0.263062 1.459604 0.333879
v -0.148546 1.459604 0.232427
v 0.000000 0.837524 -1.542232
v 0.153148 0.948792 -0.134076
v 0.000000 0.837524 -0.134076
v 0.153148 0.948792 -1.542232
v 0.094651 1.128829 -0.134076
v 0.094651 1.128829 -1.542232
v -0.094651 1.128829 -1.542232
v -0.223886 0.925808 -1.573491
v -0.153148 0.948792 -1.542232
v -0.153148 0.948792 -0.134076
v -0.094651 1.128829 -0.134076
v -0.138369 1.189002 -1.883855
v -0.138369 1.189002 -1.573491
v 0.223886 0.925808 -1.573491
v 0.138369 1.189002 -1.573491
v 0.000000 0.763146 -1.573491
v 0.223886 0.925808 -1.883855
v 0.138369 1.189002 -1.883855
v -0.223886 0.925808 -1.883855
v 0.000000 0.763146 -1.883855
vt -0.001600 0.500300
vt 0.620500 0.609000
vt -0.003900 0.609500
vt -0.003500 0.631000
vt 0.625000 0.690200
vt -0.000300 0.690200
vt 0.049700 0.872400
vt 0.923800 0.879800
vt 0.759100 0.692600
vt 0.048500 0.877600
vt 0.642100 0.978900
vt 0.132000 0.971200
vt 0.002500 0.633500
vt 0.622000 0.692300
vt -0.001300 0.693600
vt -0.001000 0.501200
vt 0.622100 0.603400
vt -0.003500 0.602200
vt 0.630500 0.570200
vt 0.746500 0.685700
vt 0.630500 0.685700
vt 0.622100 0.632200
vt 0.620700 0.630500
vt -0.003700 0.631000
vt 0.647300 0.978600
vt 0.210100 0.692600
vt 0.920500 0.879100
vt 0.382100 0.504600
vt 0.406300 0.525900
vt 0.382100 0.525900
vt 0.622900 0.499700
vt 0.212800 0.694400
vt 0.042000 0.822600
vt 0.922200 0.811400
vt 0.624500 0.502500
vt 0.746500 0.570200
vt 0.129100 0.969600
vt 0.923600 0.813500
vt 0.758900 0.692600
vt 0.043900 0.822800
vt 0.406300 0.504600
vt 0.891900 0.403900
vt 0.502100 0.358100
vt 0.889700 0.354800
vt 0.865600 0.408600
vt 0.880400 0.344800
vt 0.866400 0.347500
vt 0.908700 0.355600
vt 0.907300 0.406500
vt 0.501200 0.307100
vt 0.880900 0.299900
vt 0.500500 0.404700
vt 0.959500 0.353800
vt 0.898000 0.286600
vt 0.955500 0.388700
vt 0.954100 0.392500
vt 0.902300 0.282600
vt 0.991500 0.312500
vt 0.877500 0.302300
vt 0.499200 0.308400
vt 0.499800 0.349100
vt 0.890000 0.415100
vt 0.992100 0.314000
vt 0.502400 0.401900
vt 0.955900 0.356700
vt 0.707100 0.444200
vt 0.697000 0.526000
vt 0.656200 0.445800
vt 0.761300 0.565600
vt 0.737400 0.523400
vt 0.910100 0.559400
vt 0.900800 0.512600
vt 0.934600 0.512600
vt 0.892100 0.523300
vt 0.974200 0.444300
vt 0.933100 0.523500
vt 0.743200 0.522800
vt 0.721900 0.556800
vt 0.702800 0.524200
vt 0.975300 0.444600
vt 0.898200 0.523600
vt 0.873200 0.444100
vt 0.927600 0.442500
vt 0.897500 0.523300
vt 0.841100 0.564200
vt 0.858700 0.518400
vt 0.934200 0.523900
vt 0.922200 0.442500
vt 0.973700 0.444700
vt 0.810100 0.519600
vt 0.752300 0.445600
vt 0.812200 0.447100
vt 0.840900 0.563800
vt 0.809700 0.519900
vt 0.858700 0.518100
vt 0.713700 0.443400
vt 0.751800 0.444900
vt 0.812400 0.446800
vt 0.872800 0.444200
vt 0.928000 0.442400
vt 0.810300 0.564100
vt 0.047300 0.462600
vt 0.008200 0.359500
vt 0.181100 0.268800
vt 0.774500 0.521700
vt 0.700100 0.445000
vt 0.810000 0.564400
vt 0.774700 0.522200
vt 0.754400 0.565900
vt 0.730000 0.523600
vt 0.870600 0.565700
vt 0.754300 0.566400
vt 0.730400 0.524100
vt 0.700500 0.444200
vt 0.865100 0.565700
vt 0.892800 0.523600
vt 0.905800 0.560500
vt 0.865400 0.565400
vt 0.715200 0.556300
vt 0.881100 0.563300
vt 0.922600 0.442400
vt 0.767500 0.565200
vt 0.923700 0.443800
vt 0.870800 0.565400
vt 0.659000 0.444200
vt 0.236900 0.415900
vt 0.204600 0.462600
vt 0.243700 0.359500
vt 0.154400 0.489000
vt 0.097600 0.489000
vt 0.015000 0.415900
vt 0.028300 0.306400
vt 0.070800 0.268800
vt 0.126000 0.255200
vt 0.223600 0.306400
vt 0.784000 0.564000
vt 0.783900 0.564500
vt 0.905900 0.561100
vt 0.496800 0.267500
vt 0.496800 0.267500
vt 0.496800 0.267500
vt 0.496800 0.267500
vt 0.496800 0.267500
vt 0.000000 0.000000
vt 0.000000 0.000000
vt 0.000000 0.000000
vt 0.000000 0.000000
vt 0.000000 0.000000
vt 0.000000 0.000000
vt 0.000000 0.000000
vt 0.000000 0.000000
vt 0.000000 0.000000
vt 0.000000 0.000000
vt 0.000000 0.000000
vt 0.000000 0.000000
vt 0.000000 0.000000
vn 0.0000 -0.7925 -0.6099
vn -0.0000 0.6682 0.7440
vn -1.0000 -0.0000 -0.0000
vn 0.6871 0.7266 0.0000
vn 0.0000 0.9404 -0.3400
vn -0.0000 -0.7925 0.6099
vn -0.0000 1.0000 0.0000
vn -0.0000 -0.0000 1.0000
vn 0.0000 0.0000 -1.0000
vn -0.6871 0.7266 -0.0000
vn 1.0000 -0.0000 0.0000
vn 0.0000 -1.0000 -0.0000
vn 0.9511 0.3090 0.0000
vn -0.4384 0.1425 0.8874
vn 0.4384 0.1425 0.8874
vn 0.5878 -0.8090 -0.0000
vn -0.9511 0.3090 0.0000
vn -0.5878 -0.8090 0.0000
vn 0.2710 -0.3730 0.8874
vn -0.2710 -0.3729 0.8874
vn 0.0000 0.4610 0.8874
vn 0.2710 -0.3729 0.8874
vn -0.2710 -0.3730 0.8874
vn -0.3664 -0.6152 -0.6981
vn 0.0000 0.5013 -0.8653
vn 0.0000 -0.6152 -0.7884
vn -0.1480 0.9479 -0.2820
vn -0.4021 0.5013 -0.7662
vn 0.0762 0.9479 0.3092
vn -0.2071 0.5013 0.8402
vn 0.2071 0.5013 0.8402
vn -0.5738 0.5013 0.6477
vn -0.1887 -0.6152 0.7655
vn 0.5738 0.5013 0.6477
vn 0.1887 -0.6152 0.7655
vn 0.4021 0.5013 -0.7662
vn 0.6488 -0.6152 -0.4479
vn 0.3664 -0.6152 -0.6981
vn -0.2977 0.9479 0.1129
vn -0.8091 0.5013 0.3068
vn -0.8590 0.5013 -0.1043
vn -0.6488 -0.6152 -0.4479
vn -0.7827 -0.6152 -0.0950
vn 0.2621 0.9479 -0.1809
vn 0.8590 0.5013 -0.1043
vn 0.7121 0.5013 -0.4915
vn 0.5228 -0.6152 0.5901
vn 0.7372 -0.6152 0.2796
vn 0.7827 -0.6152 -0.0950
vn -0.7372 -0.6152 0.2796
vn -0.5228 -0.6152 0.5901
vn -0.3161 0.9479 -0.0384
vn -0.2621 0.9479 -0.1809
vn 0.2112 0.9479 0.2384
vn -0.7121 0.5013 -0.4915
vn 0.3161 0.9479 -0.0384
vn 0.8091 0.5013 0.3068
vn 0.1480 0.9479 -0.2820
vn -0.0762 0.9479 0.3092
vn -0.2112 0.9479 0.2384
vn 0.0000 0.9479 -0.3184
vn 0.2977 0.9479 0.1129
s off
f 3/1/1 12/2/1 1/3/1
f 4/4/2 5/5/2 6/6/2
f 4/7/3 11/8/3 13/9/3
f 9/10/4 15/11/4 5/12/4
f 7/13/5 16/14/5 15/15/5
f 14/16/6 8/17/6 10/18/6
f 15/19/7 6/20/7 5/21/7
f 4/4/8 8/17/8 9/22/8
f 1/3/9 11/23/9 7/24/9
f 4/7/10 16/25/10 11/8/10
f 9/10/11 2/26/11 7/27/11
f 14/28/12 3/29/12 2/30/12
f 3/1/1 13/31/1 12/2/1
f 4/4/2 9/22/2 5/5/2
f 13/9/3 14/32/3 4/7/3
f 10/33/3 4/7/3 14/32/3
f 11/8/3 12/34/3 13/9/3
f 9/10/4 7/27/4 15/11/4
f 7/13/5 11/23/5 16/14/5
f 14/16/6 2/35/6 8/17/6
f 15/19/7 16/36/7 6/20/7
f 4/4/8 10/18/8 8/17/8
f 1/3/9 12/2/9 11/23/9
f 4/7/10 6/37/10 16/25/10
f 1/38/11 7/27/11 3/39/11
f 9/10/11 8/40/11 2/26/11
f 2/26/11 3/39/11 7/27/11
f 14/28/12 13/41/12 3/29/12
f 61/42/13 57/43/13 59/44/13
f 62/45/14 63/46/14 64/47/14
f 61/42/15 69/48/15 70/49/15
f 59/44/16 58/50/16 56/51/16
f 64/47/17 66/52/17 62/45/17
f 74/53/18 71/54/18 63/46/18
f 67/55/7 70/49/7 73/56/7
f 59/44/19 71/57/19 69/48/19
f 75/58/16 69/48/16 71/57/16
f 64/47/20 71/54/20 56/59/20
f 69/48/13 73/56/13 70/49/13
f 64/47/18 58/60/18 65/61/18
f 61/42/21 68/62/21 62/45/21
f 66/52/7 61/42/7 62/45/7
f 75/63/9 67/55/9 73/56/9
f 68/62/17 74/53/17 63/46/17
f 61/42/13 60/64/13 57/43/13
f 62/45/14 68/62/14 63/46/14
f 61/42/15 59/44/15 69/48/15
f 59/44/16 57/43/16 58/50/16
f 64/47/17 65/61/17 66/52/17
f 74/53/18 75/63/18 71/54/18
f 67/55/7 68/62/7 70/49/7
f 59/44/22 56/51/22 71/57/22
f 75/58/16 72/65/16 69/48/16
f 64/47/23 63/46/23 71/54/23
f 69/48/13 72/65/13 73/56/13
f 64/47/18 56/59/18 58/60/18
f 61/42/21 70/49/21 68/62/21
f 66/52/7 60/64/7 61/42/7
f 73/56/9 72/65/9 75/63/9
f 75/63/9 74/53/9 67/55/9
f 68/62/17 67/55/17 74/53/17
s 1
f 41/66/24 17/67/25 19/68/26
f 55/69/27 17/67/25 50/70/28
f 51/71/29 31/72/30 29/73/31
f 47/74/32 30/75/33 31/76/30
f 27/77/34 51/78/29 29/79/31
f 31/72/30 28/80/35 29/73/31
f 20/81/36 21/82/37 18/83/38
f 47/84/32 38/85/39 33/86/40
f 17/87/25 18/88/38 19/89/26
f 36/90/41 37/91/42 35/92/43
f 54/93/44 22/94/45 45/95/46
f 29/79/31 26/96/47 27/77/34
f 22/94/45 24/97/48 23/98/49
f 45/95/46 23/98/49 21/82/37
f 47/84/32 34/99/50 32/100/51
f 33/86/40 39/101/52 36/90/41
f 52/102/53 38/103/39 44/104/54
f 40/105/55 41/106/24 37/91/42
f 46/107/56 25/108/57 22/94/45
f 25/108/57 44/109/54 27/110/34
f 36/90/41 34/99/50 33/86/40
f 49/111/58 45/95/46 20/81/36
f 39/101/52 40/105/55 36/90/41
f 40/105/55 55/112/27 50/113/28
f 25/108/57 26/114/47 24/97/48
f 17/87/25 49/115/58 20/116/36
f 47/74/32 43/117/59 48/118/60
f 41/66/24 50/70/28 17/67/25
f 55/69/27 42/119/61 17/67/25
f 51/71/29 43/120/59 31/72/30
f 47/74/32 32/121/51 30/75/33
f 27/77/34 44/122/54 51/78/29
f 31/72/30 30/123/33 28/80/35
f 20/81/36 45/95/46 21/82/37
f 47/84/32 48/124/60 38/85/39
f 17/87/25 20/116/36 18/88/38
f 36/90/41 40/105/55 37/91/42
f 54/93/44 46/107/56 22/94/45
f 29/79/31 28/125/35 26/96/47
f 22/94/45 25/108/57 24/97/48
f 45/95/46 22/94/45 23/98/49
f 47/84/32 33/86/40 34/99/50
f 33/86/40 38/85/39 39/101/52
f 54/126/44 49/127/58 46/128/56
f 42/129/61 55/130/27 52/102/53
f 52/102/53 39/131/52 38/103/39
f 38/103/39 48/132/60 44/104/54
f 43/133/59 51/134/29 44/104/54
f 44/104/54 53/135/62 46/128/56
f 46/128/56 49/127/58 42/129/61
f 42/129/61 52/102/53 44/104/54
f 48/132/60 43/133/59 44/104/54
f 44/104/54 46/128/56 42/129/61
f 40/105/55 50/113/28 41/106/24
f 46/107/56 53/136/62 25/108/57
f 25/108/57 53/136/62 44/109/54
f 36/90/41 35/92/43 34/99/50
f 49/111/58 54/93/44 45/95/46
f 39/101/52 52/137/53 40/105/55
f 40/105/55 52/137/53 55/112/27
f 25/108/57 27/110/34 26/114/47
f 17/87/25 42/138/61 49/115/58
f 47/74/32 31/76/30 43/117/59
s off
f 66/139/8 65/140/8 58/141/8
f 58/141/8 57/142/8 60/143/8
f 60/143/8 66/139/8 58/141/8
s 1
f 24/144/48 32/145/51 41/146/24
f 21/147/37 23/148/49 24/144/48
f 24/144/48 26/149/47 32/145/51
f 28/150/35 30/151/33 32/145/51
f 32/145/51 34/152/50 41/146/24
f 35/153/43 37/154/42 41/146/24
f 41/146/24 19/155/26 18/156/38
f 18/156/38 21/147/37 24/144/48
f 26/149/47 28/150/35 32/145/51
f 34/152/50 35/153/43 41/146/24
f 41/146/24 18/156/38 24/144/48
