# Blender v2.79 (sub 0) OBJ File: 'tree2.blend'
# www.blender.org
v -0.685446 -0.003617 -0.685446
v -0.685446 -0.003617 0.685446
v 0.685446 -0.003617 0.685446
v 0.685446 -0.003617 -0.685446
v -0.501529 -4.310610 -0.486474
v -0.501528 -4.310610 0.486474
v 0.471420 -4.310610 0.486474
v 0.471420 -4.310610 -0.486474
v -0.558056 -1.190832 0.298667
v 0.304424 -1.190832 0.537243
v -0.135016 -2.138971 0.532036
v 0.532036 -2.138971 0.135016
v -0.147128 -3.218033 0.396959
v 0.530020 -3.218033 0.216388
v -0.289369 -1.195280 -0.510673
v -0.532036 -2.138971 -0.135016
v -0.507969 -3.332650 -0.294089
v 0.294089 -3.341362 -0.507969
v 0.135016 -2.130824 -0.532036
v 0.543000 -1.204659 -0.325237
v -0.192294 -3.717629 0.362259
v 0.493352 -3.745949 0.264115
v 0.787997 -3.608003 2.688410
v 0.598659 -3.667782 2.829173
v 0.630134 -3.811461 2.818997
v 0.824348 -3.758850 2.790220
v 0.412066 -3.620244 1.908326
v 0.817976 -3.510287 1.848181
v 0.742000 -3.195013 1.818933
v 0.346282 -3.319951 1.929591
v -2.808824 -6.107360 -2.897913
v -2.808820 -6.107360 2.897361
v 2.986450 -6.107360 -2.897914
v 2.986453 -6.107360 2.897358
v -3.579580 -12.020711 -3.622654
v -3.579575 -12.020711 3.622658
v 3.665734 -12.020711 -3.622656
v 3.665737 -12.020711 3.622656
v 0.727505 -3.203226 1.657590
v 0.285977 -3.314490 1.704610
v 0.355412 -3.636927 1.738697
v 0.795303 -3.535915 1.705095
v 0.544141 -3.207511 1.874262
v 0.506741 -3.208622 1.681100
v 0.560140 -2.350921 1.900842
v 0.523762 -2.352001 1.712962
v 0.544917 -2.268069 2.295803
v 0.534569 -2.253863 1.340626
v 0.651970 -0.844744 2.338093
v 0.640336 -0.828775 1.264277
v 0.742000 -3.245194 1.844024
v 0.045890 -4.310610 0.486474
v 0.088816 -6.107360 2.897360
v 2.986452 -6.107360 -0.000278
v 0.471420 -4.310610 -0.000000
v 0.088813 -6.107360 -2.897913
v -0.015054 -4.310610 -0.486474
v -0.501528 -4.310610 0.000000
v -2.808822 -6.107360 -0.000276
vt 0.497175 0.997788
vt 0.753906 0.505929
vt 0.744141 0.998765
vt 0.494443 -0.003865
vt 0.000042 0.246306
vt 0.000042 0.000042
vt 0.498349 -0.001912
vt 0.000041 0.246306
vt 0.000041 0.000042
vt 0.494443 0.000041
vt 0.000042 0.248966
vt 0.000042 0.000042
vt 0.494444 0.729819
vt 0.494444 1.003865
vt 0.247243 1.001912
vt 0.498350 0.474646
vt 0.000041 0.476599
vt 0.498350 0.720563
vt 0.000041 0.722516
vt 0.470379 0.949266
vt 0.020196 0.564385
vt 0.451802 0.537737
vt 0.494443 0.472693
vt 0.000042 0.476599
vt 0.000042 0.722516
vt 0.494444 0.720200
vt 0.247243 0.998005
vt 0.000041 0.845229
vt 0.000042 0.724106
vt 0.494444 0.478699
vt 0.000042 0.247159
vt 0.494444 0.252872
vt 0.494444 0.003948
vt 0.494443 0.476599
vt 0.000042 0.474793
vt 0.494444 0.722516
vt 0.000041 0.725912
vt 0.494444 0.852185
vt 0.247243 0.999959
vt 0.000041 0.999959
vt 0.498350 0.843276
vt 0.217982 0.999104
vt 0.000041 0.852185
vt 0.484678 0.060407
vt 0.013713 0.453748
vt 0.007854 0.036969
vt 0.037055 0.958465
vt 0.245861 0.524726
vt 0.443305 0.892632
vt 0.011665 0.978664
vt 0.473058 0.498740
vt 0.476508 0.896538
vt 0.027298 0.962941
vt 0.450460 0.548107
vt 0.438085 0.941452
vt 0.472656 0.452469
vt 0.009820 0.050707
vt 0.468804 0.008400
vt 0.450057 0.499071
vt 0.030526 0.047653
vt 0.429735 0.048875
vt 0.023319 0.495341
vt 0.466843 0.027390
vt 0.452464 0.484421
vt 0.041992 0.483129
vt 0.046930 0.007792
vt 0.459039 0.024376
vt 0.746093 0.502021
vt 0.992120 0.998831
vt 0.513740 0.985160
vt 0.512800 0.500069
vt 0.745117 0.985093
vt 0.507882 0.993882
vt 0.987200 0.991929
vt 0.751953 0.509835
vt 0.996024 0.519601
vt 0.753906 0.518467
vt 0.997849 0.982385
vt 0.500198 0.972619
vt 0.750977 0.982230
vt 0.513740 0.494208
vt 0.988213 0.507880
vt 0.749024 0.991995
vt 0.513740 0.505927
vt 0.982354 0.507880
vt 0.512800 0.511788
vt 0.745117 0.986069
vt 0.502023 0.988023
vt 0.566406 0.221656
vt 0.507029 0.481120
vt 0.511790 0.222536
vt 0.615238 0.472572
vt 0.502037 0.245984
vt 0.618325 0.252037
vt 0.623101 0.222300
vt 0.514376 0.004534
vt 0.619863 -0.007046
vt 0.513740 0.290947
vt 0.618878 0.026950
vt 0.612734 0.340932
vt 0.503942 0.492152
vt 0.623845 -0.005824
vt 0.621892 0.492073
vt 0.603443 0.469478
vt 0.555236 0.475299
vt 0.748080 0.480735
vt 0.994117 0.453152
vt 0.854451 0.481819
vt 0.993551 0.469644
vt 0.627051 -0.000894
vt 0.983788 0.002048
vt 0.991106 0.505929
vt 0.988212 0.984116
vt 0.508894 0.997788
vt 0.507882 0.500069
vt 0.991107 0.999741
vt 0.985247 0.502023
vt 0.982352 0.976304
vt 0.515694 0.496163
vt 0.494443 0.243253
vt 0.498350 0.244353
vt 0.494443 0.246306
vt 0.000042 0.999959
vt 0.011672 0.990781
vt 0.494444 0.996052
vt 0.000041 0.999959
vt 0.000042 0.476600
vt 0.000041 0.000041
vt 0.494444 0.999959
vt 0.000041 0.999959
vt 0.498350 0.998005
vt 0.459287 0.437026
vt 0.450418 0.500087
vt 0.041304 0.549366
vt 0.010821 0.554535
vt 0.023733 0.544063
vt 0.010742 0.514685
vt 0.021099 0.519217
vt 0.019340 0.027741
vt 0.451172 0.458504
vt 0.246582 0.470816
vt 0.508653 0.498115
vt 0.983534 0.505927
vt 0.749023 0.501046
vt 0.748047 0.994858
vt 0.513681 0.520420
vt 0.994132 0.516514
vt 0.985487 0.979300
vt 0.516466 0.985160
vt 0.981581 0.991019
vt 0.516466 0.992972
vt 0.721992 0.509226
vt 0.503991 0.474853
vt 0.500544 0.201226
vt 0.513740 0.035225
vt 0.501989 -0.005745
vt 0.621022 0.220775
vt 0.626976 0.460961
vt 0.625095 0.476468
vt 0.992118 0.515694
vn -0.0000 0.8019 -0.5975
vn -0.9943 -0.1067 0.0000
vn 0.0000 -0.1239 0.9923
vn 0.9930 -0.1178 -0.0000
vn -0.0000 -0.0222 -0.9998
vn 0.4971 -0.2350 0.8352
vn 0.2570 0.0722 0.9637
vn 0.9605 0.1636 -0.2251
vn -0.8322 -0.2494 0.4953
vn -0.8580 -0.0543 0.5107
vn -0.8563 0.1435 0.4961
vn -0.2578 -0.0531 -0.9647
vn 0.2172 0.1206 -0.9687
vn 0.2039 -0.3033 -0.9308
vn 0.8296 -0.2545 -0.4969
vn 0.9383 0.1168 -0.3255
vn 0.9992 -0.0388 -0.0000
vn 0.1473 0.2591 0.9545
vn 0.3601 0.5800 0.7307
vn -0.0017 1.0000 -0.0065
vn -0.0310 -0.9970 0.0708
vn -0.9460 0.0634 0.3180
vn 0.2184 -0.9432 -0.2503
vn 0.9589 0.2758 0.0663
vn -0.9576 -0.2227 0.1826
vn -0.0218 0.9304 0.3659
vn 0.0000 0.1217 0.9926
vn -0.6144 0.7890 0.0000
vn 0.5813 0.8137 -0.0000
vn -0.9916 0.1292 0.0000
vn 0.9935 0.1141 -0.0000
vn -0.0000 0.1217 -0.9926
vn 0.0000 0.8018 0.5976
vn -0.0295 0.9984 -0.0482
vn -0.9515 -0.1784 0.2507
vn 0.2253 -0.9741 0.0206
vn 0.9432 0.2672 -0.1973
vn -0.9817 0.0124 0.1900
vn -0.4738 0.8764 0.0867
vn -0.7627 0.6305 0.1440
vn -0.9971 0.0746 0.0119
vn -0.8931 -0.3400 -0.2946
vn -0.2522 -0.3241 0.9118
vn 0.9104 -0.3243 0.2570
vn -0.0000 0.1930 -0.9812
vn -0.2566 0.0604 -0.9646
vn -0.2648 0.1175 0.9571
vn 0.5082 -0.1126 0.8538
vn 0.9876 -0.0808 -0.1345
vn -0.9423 0.1175 -0.3135
vn -0.8780 -0.0806 0.4718
vn -0.8887 0.0487 0.4560
vn -1.0000 -0.0066 0.0000
vn -0.8867 0.4624 0.0000
vn -0.5096 0.1035 -0.8541
vn -0.4985 -0.2069 -0.8418
vn -0.0000 -0.1451 -0.9894
vn 0.9575 0.1183 0.2630
vn 0.8584 -0.0402 -0.5114
vn 0.9717 0.1742 -0.1595
vn 0.9513 -0.0927 -0.2941
vn 0.0000 0.3664 0.9305
vn 0.0000 0.2050 0.9788
vn 0.1559 -0.0357 0.9871
vn -0.0252 0.9997 -0.0068
vn -0.4062 0.8916 0.2003
vn 0.2296 -0.9688 0.0931
vn -0.9143 -0.1575 0.3731
vn 0.9589 0.2759 0.0663
vn 0.0620 0.9028 0.4255
vn -0.3212 0.8081 0.4937
vn -0.0000 0.1216 -0.9926
vn -0.0613 0.9981 0.0061
vn -0.9175 -0.2243 0.3285
vn 0.2768 -0.9525 0.1267
vn 0.9802 0.1952 -0.0323
vn -0.4169 0.8991 0.1336
vn -0.9767 -0.2147 0.0074
s off
f 8/1/1 56/2/1 57/3/1
f 1/4/2 9/5/2 2/6/2
f 2/7/3 10/8/3 3/9/3
f 3/10/4 20/11/4 4/12/4
f 18/13/5 8/14/5 57/15/5
f 10/8/6 11/16/6 12/17/6
f 12/17/7 13/18/7 14/19/7
f 22/20/8 39/21/8 42/22/8
f 9/5/9 16/23/9 11/24/9
f 16/23/10 13/25/10 11/24/10
f 17/26/11 58/27/11 21/28/11
f 17/29/12 19/30/12 18/13/12
f 19/30/13 15/31/13 20/32/13
f 15/31/14 4/33/14 20/32/14
f 20/11/15 12/34/15 19/35/15
f 19/35/16 14/36/16 18/37/16
f 22/38/17 55/39/17 8/40/17
f 21/41/18 52/42/18 22/43/18
f 24/44/19 26/45/19 23/46/19
f 13/47/20 44/48/20 14/49/20
f 22/50/21 41/51/21 21/52/21
f 21/53/22 40/54/22 13/55/22
f 27/56/23 26/57/23 25/58/23
f 28/59/24 23/60/24 26/61/24
f 27/62/25 24/63/25 30/64/25
f 30/65/26 24/66/26 23/67/26
f 53/68/27 36/69/27 38/70/27
f 6/71/28 59/72/28 32/73/28
f 8/74/29 54/75/29 33/76/29
f 59/77/30 35/78/30 36/79/30
f 54/80/31 38/81/31 37/82/31
f 56/83/32 37/84/32 35/85/32
f 7/86/33 53/87/33 34/88/33
f 44/89/34 29/90/34 39/91/34
f 41/92/35 30/93/35 40/94/35
f 42/95/36 27/96/36 41/97/36
f 42/98/37 51/99/37 28/100/37
f 43/101/38 46/102/38 44/103/38
f 44/89/39 30/104/39 43/105/39
f 45/106/40 48/107/40 46/108/40
f 48/109/41 49/110/41 50/111/41
f 53/87/33 6/112/33 32/113/33
f 54/75/29 7/114/29 34/115/29
f 56/2/1 5/116/1 57/3/1
f 59/72/28 5/117/28 31/118/28
f 8/1/1 33/119/1 56/2/1
f 1/4/42 15/120/42 9/5/42
f 2/7/43 9/121/43 10/8/43
f 3/10/44 10/122/44 20/11/44
f 57/15/45 5/123/45 17/29/45
f 17/29/46 18/13/46 57/15/46
f 10/8/47 9/121/47 11/16/47
f 12/17/48 11/16/48 13/18/48
f 22/20/49 14/124/49 39/21/49
f 9/5/50 15/120/50 16/23/50
f 16/23/51 17/26/51 13/25/51
f 21/28/52 13/25/52 17/26/52
f 17/26/53 5/125/53 58/27/53
f 58/27/54 6/126/54 21/28/54
f 17/29/55 16/127/55 19/30/55
f 19/30/56 16/127/56 15/31/56
f 15/31/57 1/128/57 4/33/57
f 20/11/58 10/122/58 12/34/58
f 19/35/59 12/34/59 14/36/59
f 8/40/60 18/37/60 22/38/60
f 22/38/17 7/129/17 55/39/17
f 18/37/61 14/36/61 22/38/61
f 7/130/62 22/43/62 52/42/62
f 21/41/63 6/131/63 52/42/63
f 24/44/64 25/132/64 26/45/64
f 39/133/65 14/49/65 44/48/65
f 13/47/66 40/134/66 44/48/66
f 22/50/67 42/135/67 41/51/67
f 21/53/68 41/136/68 40/54/68
f 27/56/23 28/137/23 26/57/23
f 28/59/69 51/138/69 23/60/69
f 27/62/25 25/139/25 24/63/25
f 23/67/70 29/140/70 43/141/70
f 43/141/71 30/65/71 23/67/71
f 38/70/27 34/142/27 53/68/27
f 53/68/27 32/143/27 36/69/27
f 6/71/28 58/144/28 59/72/28
f 8/74/29 55/145/29 54/75/29
f 36/79/30 32/146/30 59/77/30
f 59/77/30 31/147/30 35/78/30
f 37/82/31 33/148/31 54/80/31
f 54/80/31 34/149/31 38/81/31
f 35/85/72 31/150/72 56/83/72
f 56/83/32 33/151/32 37/84/32
f 7/86/33 52/152/33 53/87/33
f 44/89/73 43/105/73 29/90/73
f 41/92/74 27/153/74 30/93/74
f 42/95/75 28/154/75 27/96/75
f 42/98/76 39/155/76 51/99/76
f 43/101/38 45/156/38 46/102/38
f 44/89/77 40/157/77 30/104/77
f 45/106/78 47/158/78 48/107/78
f 48/109/41 47/159/41 49/110/41
f 53/87/33 52/152/33 6/112/33
f 54/75/29 55/145/29 7/114/29
f 56/2/1 31/160/1 5/116/1
f 59/72/28 58/144/28 5/117/28
